<svg width="16" height="18" viewBox="0 0 16 18" fill="none" xmlns="http://www.w3.org/2000/svg">
<path d="M9.54133 17.4326C11.8653 15.4581 16 11.4243 16 7.72263C16 5.67446 15.1571 3.71018 13.6569 2.26191C12.1566 0.813632 10.1217 0 8 0C5.87827 0 3.84344 0.813632 2.34315 2.26191C0.842855 3.71018 3.16163e-08 5.67446 0 7.72263C0 11.4243 4.13333 15.4581 6.45867 17.4326C6.88282 17.798 7.43147 18 8 18C8.56853 18 9.11718 17.798 9.54133 17.4326ZM5.33333 7.72263C5.33333 7.03991 5.61428 6.38515 6.11438 5.90239C6.61448 5.41963 7.29276 5.14842 8 5.14842C8.70724 5.14842 9.38552 5.41963 9.88562 5.90239C10.3857 6.38515 10.6667 7.03991 10.6667 7.72263C10.6667 8.40535 10.3857 9.06011 9.88562 9.54287C9.38552 10.0256 8.70724 10.2968 8 10.2968C7.29276 10.2968 6.61448 10.0256 6.11438 9.54287C5.61428 9.06011 5.33333 8.40535 5.33333 7.72263Z" fill="#109EF4"/>
</svg>
