<svg width="20" height="21" viewBox="0 0 20 21" fill="none" xmlns="http://www.w3.org/2000/svg">
<path d="M7.49992 8.83333C8.42039 8.83333 9.16659 8.08714 9.16659 7.16667C9.16659 6.24619 8.42039 5.5 7.49992 5.5C6.57944 5.5 5.83325 6.24619 5.83325 7.16667C5.83325 8.08714 6.57944 8.83333 7.49992 8.83333Z" stroke="#377DFF" stroke-width="1.5" stroke-linecap="round" stroke-linejoin="round"/>
<path d="M10.8334 2.16699H7.50008C3.33341 2.16699 1.66675 3.83366 1.66675 8.00033V13.0003C1.66675 17.167 3.33341 18.8337 7.50008 18.8337H12.5001C16.6667 18.8337 18.3334 17.167 18.3334 13.0003V8.83366" stroke="#377DFF" stroke-width="1.5" stroke-linecap="round" stroke-linejoin="round"/>
<path d="M13.125 4.66699H17.7083" stroke="#377DFF" stroke-width="1.5" stroke-linecap="round"/>
<path d="M15.4166 6.95833V2.375" stroke="#377DFF" stroke-width="1.5" stroke-linecap="round"/>
<path d="M2.2251 16.2918L6.33343 13.5335C6.99176 13.0918 7.94176 13.1418 8.53343 13.6501L8.80843 13.8918C9.45843 14.4501 10.5084 14.4501 11.1584 13.8918L14.6251 10.9168C15.2751 10.3585 16.3251 10.3585 16.9751 10.9168L18.3334 12.0835" stroke="#377DFF" stroke-width="1.5" stroke-linecap="round" stroke-linejoin="round"/>
</svg>
