<svg
  width="24"
  height="24"
  viewBox="0 0 24 24"
  fill="none"
  xmlns="http://www.w3.org/2000/svg"
>
<path
    d="M15.5556 19.2H8.44444C7.7372 19.2 7.05892 18.9155 6.55883 18.4092C6.05873 17.9028 5.77778 17.2161 5.77778 16.5V7.5C5.77778 7.2613 5.68413 7.03239 5.51743 6.8636C5.35073 6.69482 5.12464 6.6 4.88889 6.6C4.65314 6.6 4.42705 6.69482 4.26035 6.8636C4.09365 7.03239 4 7.2613 4 7.5V16.5C4 17.6935 4.46825 18.8381 5.30175 19.682C6.13524 20.5259 7.2657 21 8.44444 21H15.5556C15.7913 21 16.0174 20.9052 16.1841 20.7364C16.3508 20.5676 16.4444 20.3387 16.4444 20.1C16.4444 19.8613 16.3508 19.6324 16.1841 19.4636C16.0174 19.2948 15.7913 19.2 15.5556 19.2ZM20 9.246C19.9907 9.16332 19.9729 9.08187 19.9467 9.003V8.922C19.9039 8.82946 19.8469 8.7444 19.7778 8.67L14.4444 3.27C14.371 3.19999 14.287 3.14227 14.1956 3.099H14.1156L13.8311 3H10.2222C9.51498 3 8.8367 3.28446 8.3366 3.79081C7.83651 4.29716 7.55556 4.98392 7.55556 5.7V14.7C7.55556 15.4161 7.83651 16.1028 8.3366 16.6092C8.8367 17.1155 9.51498 17.4 10.2222 17.4H17.3333C18.0406 17.4 18.7189 17.1155 19.219 16.6092C19.719 16.1028 20 15.4161 20 14.7V9.3C20 9.3 20 9.3 20 9.246ZM14.6667 6.069L16.9689 8.4H15.5556C15.3198 8.4 15.0937 8.30518 14.927 8.1364C14.7603 7.96761 14.6667 7.73869 14.6667 7.5V6.069ZM18.2222 14.7C18.2222 14.9387 18.1286 15.1676 17.9619 15.3364C17.7952 15.5052 17.5691 15.6 17.3333 15.6H10.2222C9.98647 15.6 9.76038 15.5052 9.59368 15.3364C9.42698 15.1676 9.33333 14.9387 9.33333 14.7V5.7C9.33333 5.46131 9.42698 5.23239 9.59368 5.0636C9.76038 4.89482 9.98647 4.8 10.2222 4.8H12.8889V7.5C12.8889 8.21608 13.1698 8.90284 13.6699 9.40919C14.17 9.91554 14.8483 10.2 15.5556 10.2H18.2222V14.7Z"
    fill="#109EF4"
  />
</svg>
