<svg
  width="16"
  height="17"
  viewBox="0 0 16 17"
  fill="none"
  xmlns="http://www.w3.org/2000/svg"
>
<path
    d="M14 5.66675H2C1.72667 5.66675 1.5 5.44008 1.5 5.16675C1.5 4.89341 1.72667 4.66675 2 4.66675H14C14.2733 4.66675 14.5 4.89341 14.5 5.16675C14.5 5.44008 14.2733 5.66675 14 5.66675Z"
    fill="#2B3D91"
  />
<path
    d="M12 9H4C3.72667 9 3.5 8.77333 3.5 8.5C3.5 8.22667 3.72667 8 4 8H12C12.2733 8 12.5 8.22667 12.5 8.5C12.5 8.77333 12.2733 9 12 9Z"
    fill="#2B3D91"
  />
<path
    d="M9.33341 12.3333H6.66675C6.39341 12.3333 6.16675 12.1066 6.16675 11.8333C6.16675 11.5599 6.39341 11.3333 6.66675 11.3333H9.33341C9.60675 11.3333 9.83341 11.5599 9.83341 11.8333C9.83341 12.1066 9.60675 12.3333 9.33341 12.3333Z"
    fill="#2B3D91"
  />
</svg>
