<svg xmlns="http://www.w3.org/2000/svg" width="28" height="21" fill="none"><rect width="27.5" height="19.5" x=".25" y=".75" fill="#fff" stroke="#F5F5F5" stroke-width=".5" rx="1.75"/><mask id="a" width="28" height="21" x="0" y="0" maskUnits="userSpaceOnUse" style="mask-type:alpha"><rect width="27.5" height="19.5" x=".25" y=".75" fill="#fff" stroke="#fff" stroke-width=".5" rx="1.75"/></mask><g fill-rule="evenodd" clip-rule="evenodd" mask="url(#a)"><path fill="#04AAC8" d="M0 7.167h28V.5H0v6.667Z"/><path fill="#23C840" d="M0 20.5h28v-6.667H0V20.5Z"/><path fill="#fff" d="M4.667 5.833a1.99 1.99 0 0 0 1.111-.337 1.667 1.667 0 1 1 0-3.326 2 2 0 1 0-1.111 3.663ZM8 5.167a.667.667 0 1 1-1.333 0 .667.667 0 0 1 1.333 0Zm2-2a.667.667 0 1 0 0-1.334.667.667 0 0 0 0 1.334Zm3.333-.667A.667.667 0 1 1 12 2.5a.667.667 0 0 1 1.333 0Zm-.666 3.333a.667.667 0 1 0 0-1.333.667.667 0 0 0 0 1.333Zm-2-.666a.667.667 0 1 1-1.334 0 .667.667 0 0 1 1.334 0Z"/></g></svg>