<svg width="23" height="13" viewBox="0 0 23 13" fill="none" xmlns="http://www.w3.org/2000/svg">
<path d="M10.6321 4H9.22301C9.13968 3.5947 8.99385 3.23864 8.78551 2.93182C8.58097 2.625 8.33097 2.36742 8.03551 2.15909C7.74384 1.94697 7.41998 1.78788 7.06392 1.68182C6.70786 1.57576 6.33665 1.52273 5.95028 1.52273C5.24574 1.52273 4.60748 1.70076 4.03551 2.05682C3.46733 2.41288 3.01468 2.9375 2.67756 3.63068C2.34422 4.32386 2.17756 5.17424 2.17756 6.18182C2.17756 7.18939 2.34422 8.03977 2.67756 8.73295C3.01468 9.42614 3.46733 9.95076 4.03551 10.3068C4.60748 10.6629 5.24574 10.8409 5.95028 10.8409C6.33665 10.8409 6.70786 10.7879 7.06392 10.6818C7.41998 10.5758 7.74384 10.4186 8.03551 10.2102C8.33097 9.99811 8.58097 9.73864 8.78551 9.43182C8.99385 9.12121 9.13968 8.76515 9.22301 8.36364H10.6321C10.526 8.95833 10.3329 9.49053 10.0526 9.96023C9.77225 10.4299 9.42377 10.8295 9.0071 11.1591C8.59044 11.4848 8.12263 11.733 7.60369 11.9034C7.08854 12.0739 6.53741 12.1591 5.95028 12.1591C4.95786 12.1591 4.07528 11.9167 3.30256 11.4318C2.52983 10.947 1.92188 10.2576 1.47869 9.36364C1.03551 8.4697 0.81392 7.40909 0.81392 6.18182C0.81392 4.95455 1.03551 3.89394 1.47869 3C1.92188 2.10606 2.52983 1.41667 3.30256 0.931818C4.07528 0.446969 4.95786 0.204545 5.95028 0.204545C6.53741 0.204545 7.08854 0.289772 7.60369 0.460227C8.12263 0.630682 8.59044 0.880682 9.0071 1.21023C9.42377 1.53598 9.77225 1.93371 10.0526 2.40341C10.3329 2.86932 10.526 3.40151 10.6321 4ZM17.5 10.1818L20.5455 3.27273H21.8182L18.0455 12H16.9545L13.25 3.27273H14.5L17.5 10.1818ZM14.0682 3.27273V12H12.7273V3.27273H14.0682ZM20.9318 12V3.27273H22.2727V12H20.9318Z" fill="#464A4D"/>
</svg>
