<svg width="60" height="61" viewBox="0 0 60 61" fill="none" xmlns="http://www.w3.org/2000/svg">
<circle cx="30" cy="30.2905" r="30" fill="#F3F3F3"/>
<path d="M18.75 32.6418C18.9489 32.6418 19.1397 32.7209 19.2803 32.8615C19.421 33.0022 19.5 33.1929 19.5 33.3918V37.1418C19.5 37.5397 19.658 37.9212 19.9393 38.2025C20.2206 38.4838 20.6022 38.6418 21 38.6418H39C39.3978 38.6418 39.7794 38.4838 40.0607 38.2025C40.342 37.9212 40.5 37.5397 40.5 37.1418V33.3918C40.5 33.1929 40.579 33.0022 40.7197 32.8615C40.8603 32.7209 41.0511 32.6418 41.25 32.6418C41.4489 32.6418 41.6397 32.7209 41.7803 32.8615C41.921 33.0022 42 33.1929 42 33.3918V37.1418C42 37.9375 41.6839 38.7006 41.1213 39.2632C40.5587 39.8258 39.7956 40.1418 39 40.1418H21C20.2044 40.1418 19.4413 39.8258 18.8787 39.2632C18.3161 38.7006 18 37.9375 18 37.1418V33.3918C18 33.1929 18.079 33.0022 18.2197 32.8615C18.3603 32.7209 18.5511 32.6418 18.75 32.6418Z" fill="#2B3D91"/>
<path d="M29.469 19.5109C29.5386 19.441 29.6214 19.3856 29.7125 19.3478C29.8036 19.31 29.9013 19.2905 30 19.2905C30.0986 19.2905 30.1963 19.31 30.2874 19.3478C30.3785 19.3856 30.4613 19.441 30.531 19.5109L35.031 24.0109C35.1718 24.1517 35.2509 24.3427 35.2509 24.5419C35.2509 24.741 35.1718 24.932 35.031 25.0729C34.8901 25.2137 34.6991 25.2928 34.5 25.2928C34.3008 25.2928 34.1098 25.2137 33.969 25.0729L30.75 21.8524V35.0419C30.75 35.2408 30.671 35.4315 30.5303 35.5722C30.3896 35.7129 30.1989 35.7919 30 35.7919C29.8011 35.7919 29.6103 35.7129 29.4696 35.5722C29.329 35.4315 29.25 35.2408 29.25 35.0419V21.8524L26.031 25.0729C25.9612 25.1426 25.8785 25.1979 25.7873 25.2357C25.6962 25.2734 25.5986 25.2928 25.5 25.2928C25.4014 25.2928 25.3037 25.2734 25.2126 25.2357C25.1215 25.1979 25.0387 25.1426 24.969 25.0729C24.8992 25.0031 24.8439 24.9204 24.8062 24.8292C24.7684 24.7381 24.749 24.6405 24.749 24.5419C24.749 24.4433 24.7684 24.3456 24.8062 24.2545C24.8439 24.1634 24.8992 24.0806 24.969 24.0109L29.469 19.5109Z" fill="#109EF4"/>
</svg>
