<svg width="32" height="16" viewBox="0 0 32 16" fill="none" xmlns="http://www.w3.org/2000/svg">
<path d="M10.7259 4H9.31676C9.23343 3.5947 9.0876 3.23864 8.87926 2.93182C8.67472 2.625 8.42472 2.36742 8.12926 2.15909C7.83759 1.94697 7.51373 1.78788 7.15767 1.68182C6.80161 1.57576 6.4304 1.52273 6.04403 1.52273C5.33949 1.52273 4.70123 1.70076 4.12926 2.05682C3.56108 2.41288 3.10843 2.9375 2.77131 3.63068C2.43797 4.32386 2.27131 5.17424 2.27131 6.18182C2.27131 7.18939 2.43797 8.03977 2.77131 8.73295C3.10843 9.42614 3.56108 9.95076 4.12926 10.3068C4.70123 10.6629 5.33949 10.8409 6.04403 10.8409C6.4304 10.8409 6.80161 10.7879 7.15767 10.6818C7.51373 10.5758 7.83759 10.4186 8.12926 10.2102C8.42472 9.99811 8.67472 9.73864 8.87926 9.43182C9.0876 9.12121 9.23343 8.76515 9.31676 8.36364H10.7259C10.6198 8.95833 10.4266 9.49053 10.1463 9.96023C9.866 10.4299 9.51752 10.8295 9.10085 11.1591C8.68419 11.4848 8.21638 11.733 7.69744 11.9034C7.18229 12.0739 6.63116 12.1591 6.04403 12.1591C5.05161 12.1591 4.16903 11.9167 3.39631 11.4318C2.62358 10.947 2.01563 10.2576 1.57244 9.36364C1.12926 8.4697 0.90767 7.40909 0.90767 6.18182C0.90767 4.95455 1.12926 3.89394 1.57244 3C2.01563 2.10606 2.62358 1.41667 3.39631 0.931818C4.16903 0.446969 5.05161 0.204545 6.04403 0.204545C6.63116 0.204545 7.18229 0.289772 7.69744 0.460227C8.21638 0.630682 8.68419 0.880682 9.10085 1.21023C9.51752 1.53598 9.866 1.93371 10.1463 2.40341C10.4266 2.86932 10.6198 3.40151 10.7259 4ZM13.6847 15.2727C13.4574 15.2727 13.2547 15.2538 13.0767 15.2159C12.8987 15.1818 12.7756 15.1477 12.7074 15.1136L13.0483 13.9318C13.3741 14.0152 13.6619 14.0455 13.9119 14.0227C14.1619 14 14.3835 13.8883 14.5767 13.6875C14.7737 13.4905 14.9536 13.1705 15.1165 12.7273L15.3665 12.0455L12.1392 3.27273H13.5938L16.0028 10.2273H16.0938L18.5028 3.27273H19.9574L16.2528 13.2727C16.0862 13.7235 15.8797 14.0966 15.6335 14.392C15.3873 14.6913 15.1013 14.9129 14.7756 15.0568C14.4536 15.2008 14.09 15.2727 13.6847 15.2727ZM26.5 10.1818L29.5455 3.27273H30.8182L27.0455 12H25.9545L22.25 3.27273H23.5L26.5 10.1818ZM23.0682 3.27273V12H21.7273V3.27273H23.0682ZM29.9318 12V3.27273H31.2727V12H29.9318Z" fill="#464A4D"/>
</svg>
